<svg width="644" height="588" viewBox="0 0 644 588" fill="none" xmlns="http://www.w3.org/2000/svg">
<path d="M445.415 18.0216C412.249 36.9912 388.856 68.896 360.508 94.508C325.249 126.239 282.335 148.241 235.99 158.348C197.99 166.571 158.287 166.693 121.67 179.628C50.2304 204.693 1.30163 279.082 0.070428 354.717C-1.16077 430.352 41.8704 503.677 105.118 545.142C126.658 559.272 150.239 570.011 175.038 576.986C221.55 590.074 270.874 589.496 318.936 584.495C401.958 575.846 488.994 528.696 541.327 462.226C564.655 432.518 584.371 400.143 600.06 365.782C625.979 309.283 640.7 248.296 643.41 186.194C645.614 132.994 643.41 74.0184 601.2 35.2432C558.99 -3.53199 494.891 -10.296 445.415 18.0216Z" fill="#F9F9F9" fill-opacity="0.02"/>
</svg>
